<?xml version="1.0" encoding="UTF-8"?><svg xmlns="http://www.w3.org/2000/svg" width="1919.999999999997272" height="498" xmlns:xlink="http://www.w3.org/1999/xlink" viewBox="0 0 1919.999999999997272 498"><defs><linearGradient id="b" x1="89.509261860627703" y1="427.918680967194632" x2="288.052487572070959" y2="196.451201745838176" gradientUnits="userSpaceOnUse"><stop offset="0" stop-color="#3daa37"/><stop offset="1" stop-color="#d8e290"/></linearGradient></defs><g isolation="isolate"><g id="a"><g><g><g><rect x="194.143472486679457" y="74.293232973937847" width="34.929970539720671" height="34.904380702671006" fill="#0087bb"/><rect x="232.983193340207436" y="74.293232973937847" width="34.904223709814687" height="34.904380702671006" fill="#0087bb"/><rect x="271.745673704068395" y="74.293232973937847" width="34.981778185210715" height="34.904380702671006" fill="#91d2e4"/><rect x="310.637202203086417" y="74.293232973937847" width="34.955403383866724" height="34.904380702671006" fill="#91d2e4"/><rect x="349.450862240993956" y="74.293232973937847" width="34.981778185209805" height="34.904380702671006" fill="#6dbd90"/><path d="M190.285215832638642,74.293232973937847v34.904380702671006h-34.956031355310188v-25.876035013369801c0-4.990018218947625,4.038484463220811-9.028345689301204,9.028345689295747-9.028345689301204h25.92768566601444Z" fill="#0087bb"/><rect x="155.329184477328454" y="113.107363990418889" width="34.956031355310188" height="34.930127532590632" fill="#114494"/><rect x="194.143472486679457" y="113.107363990418889" width="34.929970539720671" height="34.930127532590632" fill="#0087bb"/><rect x="232.983193340207436" y="113.107363990418889" width="34.904223709814687" height="34.930127532590632" fill="#0087bb"/><rect x="271.745673704068395" y="113.107363990418889" width="34.981778185210715" height="34.930127532590632" fill="#0087bb"/><rect x="310.637202203086417" y="113.107363990418889" width="34.955403383866724" height="34.930127532590632" fill="#0087bb"/><rect x="349.450862240993956" y="113.107363990418889" width="34.981778185209805" height="34.930127532590632" fill="#91d2e4"/><rect x="349.450862240993956" y="151.947084843946868" width="34.981778185209805" height="34.955874362464783" fill="#91d2e4"/><rect x="349.450862240993956" y="190.761215860452467" width="34.981778185209805" height="34.981464199486254" fill="#0087bb"/><rect x="349.450862240993956" y="229.600936713979536" width="34.981778185209805" height="34.955874362465693" fill="#0087bb"/><rect x="349.450862240993956" y="268.415067730486044" width="34.981778185209805" height="34.981464199460788" fill="#114494"/><rect x="349.450862240993956" y="307.254788583987647" width="34.981778185209805" height="34.955874362464783" fill="#114494"/><path d="M423.246614449864865,83.321578663239052v25.927528673140841h-34.955717369619379v-34.955874362442046h25.927371680296346c4.99017521179303,0,9.028345689323032,4.038327470353579,9.028345689323032,9.028345689301204Z" fill="#3eab38"/><path d="M423.246614449864865,307.254788583987647v25.927528673165398c0,4.964271389051646-4.038170477530002,9.028345689299385-9.028345689323032,9.028345689299385h-25.927371680296346v-34.955874362464783h34.955717369619379Z" fill="#114494"/><rect x="388.290897080245486" y="268.466561390255265" width="34.955717369619379" height="34.929970539691567" fill="#0087bb"/><rect x="388.290897080245486" y="229.652430373751486" width="34.955717369619379" height="34.904380702693743" fill="#91d2e4"/><rect x="388.290897080245486" y="190.812709520223507" width="34.955717369619379" height="34.981464199487164" fill="#91d2e4"/><rect x="388.290897080245486" y="151.947084843946868" width="34.955717369619379" height="34.955874362464783" fill="#91d2e4"/><rect x="388.290897080245486" y="113.107363990418889" width="34.955717369619379" height="34.981464199486254" fill="#6dbd90"/></g><rect x="155.329184477328454" y="130.59809609016429" width="211.612566856285412" height="211.61256685628814" fill="#010101" mix-blend-mode="multiply" opacity=".3"/><g><path d="M345.57283653072227,151.931237392364892V412.749293009722351c0,6.044696287065563-4.912620736431563,10.95747401634344-10.956846044869962,10.95747401634344H84.754937906212945c-6.069972138338926,0-10.957474016346168-4.912777729277877-10.957474016346168-10.95747401634344V162.888554415808358c0-6.044539294163769,4.887501878007242-10.957317023443466,10.957474016346168-10.957317023443466H345.57283653072227Z" fill="url(#b)"/><g opacity=".7"><path d="M304.364934841090871,223.694716961772428c-4.19233747108774-8.848274872965703-14.095447405039522-13.529645119015186-22.840577965611374-17.645056086184013-1.183098231804252-.565959278878836-2.340449633713433-1.10601473501174-3.472682177218303-1.671974013892395-6.507040274933388-3.16372021859388-14.120566263472938-.102830326690309-18.442265855446749,4.115567960022418-3.961243973579258,3.858256654035358-6.661521254238323,9.491317648660697-8.050594125128555,16.744858997402844-2.444064924728082,12.886445350462964,.076612518194452,25.335822564360569,6.89324272322483,34.184097437351738,5.864625470701867,7.613682981414968,14.918717989896322,11.960658424663052,23.663848550473631,11.960658424663052,3.112226558821931,0,6.172959457877369-.565959278878836,9.054092519194455-1.697720843787465,8.076968926472546-3.189467048469851,14.430156193564471-10.905980356552391,16.564631188191925-20.140143692082347,1.877634667251186-8.076497947877215,.668789605575512-17.25916762363704-3.36969485767986-25.850288183493831Zm-.385574476818874,24.97583792459136c-1.851887837347022,8.025161280981592-7.304564029914218,14.686996520944376-14.224181554449387,17.439238439971632-9.285186016708394,3.678185837705314-21.425758264860633-.205660653362429-28.242388469861908-9.028188696449433-6.147212628005946-7.973824614084151-8.385302913651685-19.317030100099146-6.147212628005946-31.123364538324495,1.208845061704778-6.456174586606721,3.549294695416393-11.420445975655639,6.944736382991323-14.712743350816709,2.494930613027464-2.443593946127294,6.301693607296329-4.29563877635519,9.953975622252983-4.29563877635519,1.414819700788939,0,2.803892571673714,.283058135878491,4.115724952893288,.90035408165204,1.131604572031392,.565802286033431,2.289583945417689,1.106014735014469,3.472682177216484,1.671817021042443,8.179328274576619,3.858256654040815,17.438767461379939,8.230978927188517,21.014436958137594,15.818915078701139,3.678028844859,7.819343634748293,4.783886586995322,16.10181622170694,3.112226558825569,23.329610740578573Z" fill="#fff"/><path d="M345.571166143956361,336.175866037704509v3.858256654038087c-48.125220855956286-.411635292442043-60.111312124765391-12.500870873671374-71.711828916786544-24.229964822225156-4.372565280269555-4.424058940072428-8.51403706306337-8.616710396883718-14.609756031273719-11.934911594791629-12.217812737793793-6.713328899734734-22.198163161418051-9.414077158995497-30.197263626774657-11.600359799145735-15.536013935701703-4.1926514568122-25.773204686702229-6.970640205737254-34.698563056459534-32.255126103205839-6.533415076277379-18.49391650808775,2.16022182452798-39.482763629199326,12.448906235298637-52.960915088441652,10.623393199271959-13.889786751708925,21.040183788009017-40.100216567850111,22.223909991289474-55.121607891567692h3.858256654040815c-1.132232543510327,17.079096807301539-12.86085551346514,44.164133875224252-22.995686916403429,57.462214518154724-9.697135294871259,12.680784697129639-17.902210399310206,32.28071594022822-11.90885077916937,49.334222910508288,8.256568764214535,23.381104400346885,16.719112167505955,25.670374360039204,32.074898294025843,29.837278986951787,8.205075104438947,2.212029470048037,18.416519025542584,4.990018218949444,31.04628104150288,11.909164764920206,6.610027594468193,3.600945348035566,11.137701825527984,8.179485267413838,15.510267105826642,12.603544207458981,11.034086534511516,11.163291662551273,22.455003488796137,22.686567964902679,68.959430004882961,23.098203257345631Z" fill="#fff"/><path d="M345.571166143956361,377.690588320587267v3.935497143686916c-1.414191729312734,.28290114302672-3.240332736788332,.694379442596983-5.220954723583418,1.157508394808247-9.954603593723732,2.289112966815992-26.004926155657813,6.018792464289618-42.621051003621687,6.018792464289618-19.523004739179669,0-39.791411602102016-5.144342205385328-51.623649863073297-23.792582699910781-18.854215133613252-29.734291667436992-41.154737643091721-30.042939640310578-64.741345703921979-30.351587613213269-11.292182804843833-.154323986433155-22.969940086504721-.308647972897234-34.647069396693041-3.652439007831163-10.108456601588841-2.752241919027256-17.851344711009006-9.542811308404453-22.352644140726625-19.625678072971823-6.841749063425596-15.330196289491141-5.555663512073806-37.373721478694279,3.190095019941509-54.890200408335659,3.960616002135794-7.896584124417132,8.848117880113932-14.789983840486457,13.555391948912074-21.477565910350677,14.043953745269391-19.805748889308234,27.290383735557043-38.53122987347524,19.496629937837497-83.081095218393784h3.935497143678731c7.76800696785358,45.707373739696777-6.481921416501791,65.821770601907701-20.268406862922347,85.318871518314154-4.655780409020736,6.55900491329885-9.44029496746225,13.323827472802805-13.247057961732025,20.963100291241062-8.282315594108695,16.539198344044053-9.542654315556319,37.270891152029435-3.137973388721548,51.572156203279519,4.012737633351207,9.002598859423415,10.880233526675511,15.047138153615379,19.857085556226593,17.49073209974631,11.214942315176813,3.215213878364921,22.635231297979772,3.369537864828089,33.669945803969313,3.523861851263064,23.586608060830258,.308647972900872,47.970739876642256,.643042775674076,67.956559582289628,32.152138783667397,20.397141012359498,32.152138783664668,69.268391963529211,20.886016794445823,90.103229083928454,16.07606939183006,2.520677442922533-.565959278876107,4.55279308948775-1.028931238214682,6.095718968212168-1.337579211119191Z" fill="#fff"/><path d="M94.682124283299345,244.452156599652881c-8.308690395457234,8.642457226751503-16.899339976718693,17.542225759510984-20.886330780169374,26.853472591839818v-8.127991607645527c4.681527238897615-7.485105824848688,11.471782642578546-14.532829527383001,18.108185038394367-21.400482413556347,6.147212627978661-6.379091089836948,11.934597609037155-12.372136724256961,15.561760765569488-18.18526853518506,13.323670479954671-21.374735583684014,13.323670479954671-40.30587722121254,13.349417309826094-68.959900983510124v-2.70074825923075h3.858256654044453v2.70074825923075c-.025746829871423,28.26813529975243-.025746829871423,48.691180134862407-13.940966425734587,70.991859637194466-3.83250982413665,6.173273443602739-9.748628954637752,12.320800057334054-16.050322561930443,18.828311310862773Z" fill="#fff"/><path d="M222.827236480023203,423.706767026065791h-3.960616002133975c-2.366824435057424-8.874021702858954-15.536013935698065-22.557990808335489-29.785942320051618-30.480164769775911-13.503898289142853-7.48510582484414-26.853315598968038-7.43361216507401-41.026003493651842-7.43361216507401-9.774375784541007,.025746829895979-19.831966697808639,.025746829895979-30.145769967007254-2.546424272797594-9.877363104053074-2.443593946126384-30.737947054351025-8.976852029551992-44.113111194048543-22.583737638232378v-5.735891321291092c12.295053227435346,14.970054656821048,34.801550375999796,22.01777835935809,45.038741127000321,24.589949462051663,9.85161627418529,2.443593946124565,19.676857747017493,2.417847116230405,29.194393204155858,2.417847116230405,14.069700575169918-.02574682987597,28.550722457031952-.051493659772859,42.903638160925766,7.922330954311292,14.352915703897452,7.973667621182358,29.657208170612648,22.840891951338563,31.894670484811286,33.849702634577625Z" fill="#fff"/></g></g><g><polygon points="321.779415114258882 151.931237392364892 297.985993697846425 151.931237392364892 297.985993697846425 175.72465880877462 321.779415114258882 175.72465880877462 321.779415114258882 199.517933764502231 345.57283653072227 199.517933764502231 345.57283653072227 175.72465880877462 345.57283653072227 151.931237392364892 321.779415114258882 151.931237392364892" fill="#fff"/><polygon points="155.329184477328454 175.72465880877462 155.329184477328454 199.518080225212543 179.122605893766377 199.518080225212543 179.122605893766377 175.72465880877462 202.915880849468522 175.72465880877462 202.915880849468522 151.931237392364892 179.122605893766377 151.931237392364892 155.329184477328454 151.931237392364892 155.329184477328454 175.72465880877462" fill="#fff"/><polygon points="321.779415114258882 342.21066294645243 297.985993697846425 342.21066294645243 297.985993697846425 318.417241530039064 321.779415114258882 318.417241530039064 321.779415114258882 294.623966574309634 345.57283653072227 294.623966574309634 345.57283653072227 318.417241530039064 345.57283653072227 342.21066294645243 321.779415114258882 342.21066294645243" fill="#fff"/><polygon points="155.329184477328454 318.417241530039064 155.329184477328454 294.623820113602051 179.122605893766377 294.623820113602051 179.122605893766377 318.417241530039064 202.915880849468522 318.417241530039064 202.915880849468522 342.21066294645243 179.122605893766377 342.21066294645243 155.329184477328454 342.21066294645243 155.329184477328454 318.417241530039064" fill="#fff"/></g></g><g><g><path d="M603.100667842094481,276.463626209720132h39.446655270208794v23.65066114981073c-5.109175803594553,4.812773274182291-20.856188150059097,16.976580466360247-49.265617028442648,16.976580466360247-38.6855538599375,0-65.705909867430819-28.786211754749274-65.705909867430819-70.003746543904526,0-40.708877906051384,27.738755358439448-70.256191071071953,65.957098451679485-70.256191071071953,19.961956790140903,0,36.251536478581329,6.380190039883928,49.795624941201822,19.506049509730474l1.853771751744716,1.794742434448381,16.666362564817973-17.306893454645433-1.735713117153864-1.78469489107647c-9.655689178469402-9.924460963616184-31.207669706893284-26.571984384611824-67.084935194949139-26.571984384611824-52.500925993543206,0-92.09075875677263,40.677479333022347-92.09075875677263,94.618971857226825,0,54.533041640109332,38.517257508492548,94.112826859969573,91.585869702437776,94.112826859969573,30.833398716364172,0,54.394887918771929-9.322864304341238,74.153381955673467-29.338826640094339l.741006323525653-.752309809821782v-57.743231746789206h-64.316836996540587v23.098046264469303Z" fill="#fff"/><path d="M758.528628116846448,197.986032776229877c-38.414270188952287,0-66.296203040408727,30.327253719108739-66.296203040408727,72.112474708661466,0,41.863089450667758,28.821378156540959,71.101440657064813,70.089150662546672,71.101440657064813,36.113382757243016,0,52.4406407333272-22.836810136852364,56.582740487569026-29.836180036904807l1.190633889333185-2.009508673978416-17.136085217360232-12.52049498181259-1.50964339132679,2.116263822285873c-6.324928551345693,8.85188570887658-18.201124814563627,19.404318133111701-38.873945298125363,19.404318133111701-26.058303729822001,0-43.337566440201044-16.347353062822549-44.638723306601605-41.890720194937785h105.124934393370495l.233605383349641-2.31595874676259c.175832008975704-1.762087918494217,.266259899306533-3.889655227068943,.266259899306533-6.324928551346602,0-41.771405617421806-26.13366030510042-69.836706135381064-65.032724461652833-69.836706135381064Zm-39.414000754257358,58.41390526673058c2.529469043372956-20.750688944675858,19.040094685951772-36.074448526688684,39.414000754257358-36.074448526688684,21.966441692437002,0,37.110601436712386,14.064048832009576,39.218073658546928,36.074448526688684h-78.632074412804286Z" fill="#fff"/><path d="M914.946271413538852,197.986032776229877c-40.679991218865325,0-71.355141127158277,30.784416942438838-71.355141127158277,71.607585654323884,0,41.491330345983442,29.901489068810406,71.606329711402395,71.101440657066632,71.606329711402395,40.679991218867144,0,71.355141127157367-30.784416942437929,71.355141127157367-71.606329711402395,0-40.823168711885046-30.567138817064006-71.607585654323884-71.101440657065723-71.607585654323884Zm45.726369876394529,71.607585654323884c0,27.961057255497508-19.336497215363124,48.255838919765665-45.980070346486173,48.255838919765665-26.774191194926971,0-45.472669406304703-19.843898155543684-45.472669406304703-48.255838919765665,0-27.961057255499327,19.122986918751849-48.255838919765665,45.472669406304703-48.255838919765665,26.643573131123048,0,45.980070346486173,20.294781664266338,45.980070346486173,48.255838919765665Z" fill="#fff"/></g><g><polygon points="1083.647036479926101 256.992743101783162 1138.17301722018783 256.992743101783162 1138.17301722018783 233.388551840055698 1083.647036479926101 233.388551840055698 1083.647036479926101 179.612843781456831 1171.249348149643993 179.612843781456831 1171.249348149643993 155.754952049635904 1058.020777115010787 155.754952049635904 1058.020777115010787 337.913145517079101 1171.249348149643993 337.913145517079101 1171.249348149643993 314.308954255351637 1083.647036479926101 314.308954255351637 1083.647036479926101 256.992743101783162" fill="#fff"/><path d="M1262.411876664356896,197.986032776229877c-15.940427556338364,0-28.874127759238036,7.562032328765781-36.623295583274739,16.593517875381622v-13.306715250503657h-24.867669840485178v136.640310115971261h25.121370310575003v-82.48153946639286c0-20.392745212123373,12.685023504498531-34.093826539898146,31.564357496532466-34.093826539898146,17.332012313065206,0,28.532511284660359,12.191437936445254,28.532511284660359,31.059468442186699v85.515897564104307h25.12137031058046v-84.757308039673262c0-34.029773450915854-18.718573298116098-55.169804701175963-48.84864397858837-55.169804701175963Z" fill="#fff"/><path d="M1451.44886951141234,217.451892112479982c-6.837353263219484-7.70520982178823-21.029508273193642-19.465859336250105-43.958002243294686-19.465859336250105-38.735791576789779,0-65.791313986075693,29.549825050863546-65.791313986075693,71.860030181491311,0,42.012546658297651,27.158509728829813,71.353885184234969,66.045014456165518,71.353885184234969,22.247772906790487,0,35.955133949171795-11.002059990035377,42.945712248774726-18.939619252253578v3.977571231559523c0,32.305363820053572-27.382067568803905,37.129440580526534-43.704301773204861,37.129440580526534-19.856457584752206,0-35.45526866651926-8.752666218100785-38.379103787156055-10.507218479068797l-2.479231326524314-1.487036418745447-9.196014069293597,20.365114467857893,1.911545126124111,1.189377946412606c13.217543303093407,8.223914248257643,32.21493592972547,13.537808748013049,48.393992641098521,13.537808748013049,45.502812036416799,0,68.574483499536655-23.326627876136627,68.574483499536655-69.331817081044392v-115.860734484105706h-24.362780786150324v16.179056711372141Zm-42.440823194439872,3.885887398308114c24.988240360931741,0,42.440823194439872,19.946885475085764,42.440823194439872,48.508283446933092,0,28.263739499518124-17.244096308584631,48.003394392598238-41.933422254258403,48.003394392598238-24.988240360931741,0-42.440823194439872-19.739654893080115-42.440823194439872-48.003394392598238,0-28.108002577282605,17.635950500007311-48.508283446933092,41.933422254258403-48.508283446933092Z" fill="#fff"/><rect x="1512.254090100175745" y="201.272835401107841" width="25.12137031058046" height="136.640310115971261" fill="#fff"/><path d="M1638.056868748793931,197.986032776229877c-15.940427556335635,0-28.874127759236217,7.562032328765781-36.623295583271101,16.593517875381622v-13.306715250503657h-24.867669840490635v136.640310115971261h25.121370310582279v-82.48153946639286c0-20.392745212123373,12.685023504493074-34.093826539898146,31.56435749652519-34.093826539898146,17.332012313077939,0,28.53251128465763,12.191437936445254,28.53251128465763,31.059468442186699v85.515897564104307h25.121370310589555v-84.757308039673262c0-34.029773450915854-18.718573298119736-55.169804701175963-48.848643978592918-55.169804701175963Z" fill="#fff"/><path d="M1781.171564623747145,197.986032776229877c-38.414270188960472,0-66.296203040420551,30.327253719108739-66.296203040420551,72.112474708661466,0,41.863089450667758,28.821378156550054,71.101440657064813,70.08915066255031,71.101440657064813,36.113382757250292,0,52.440640733329928-22.836810136852364,56.582740487569936-29.836180036904807l1.190633889330456-2.009508673978416-17.136085217350228-12.52049498181259-1.509643391330428,2.116263822285873c-6.324928551349331,8.85188570887658-18.201124814569994,19.404318133111701-38.873945298129911,19.404318133111701-26.058303729819272,0-43.337566440199225-16.347353062822549-44.638723306599786-41.890720194937785h105.124934393370495l.233605383349641-2.31595874676259c.175832008970247-1.762087918494217,.266259899300167-3.889655227068943,.266259899300167-6.324928551346602,0-41.771405617421806-26.13366030510042-69.836706135381064-65.0327244616401-69.836706135381064Zm-39.414000754260087,58.41390526673058c2.529469043370227-20.750688944675858,19.040094685949953-36.074448526688684,39.414000754260087-36.074448526688684,21.966441692429726,0,37.110601436700563,14.064048832009576,39.218073658540561,36.074448526688684h-78.632074412800648Z" fill="#fff"/><rect x="1512.150474900527115" y="153.732883946445327" width="25.504432718884345" height="25.504362568754914" fill="#fff"/></g></g></g></g></g></svg>